/* XPM */
static char * close2a_xpm[] = {
"20 20 28 1",
" 	c None",
".	c #1F1F1F",
"+	c #1E1E1E",
"@	c #1D1D1D",
"#	c #392D1D",
"$	c #9D6216",
"%	c #9D6117",
"&	c #212121",
"*	c #41321E",
"=	c #9D6217",
"-	c #202020",
";	c #1E1E1C",
">	c #9C6116",
",	c #1C1C1C",
"'	c #151515",
")	c #1A1815",
"!	c #9C6117",
"~	c #131313",
"{	c #171514",
"]	c #141414",
"^	c #101010",
"/	c #111111",
"(	c #0F0F0F",
"_	c #0D0D0D",
":	c #050505",
"<	c #040404",
"[	c #020202",
"}	c #000000",
"....................",
"....................",
".......+++++++@@@+..",
"..........+++++++++.",
".....#$%$...........",
"&&&&*=&&&=&&&&&&&&--",
"@@@;=----->-----+@,,",
"''')!'''''>'''''''''",
"~~~{=~~~~~=~~~~~~]]]",
"^^^^ =///$ ///////^^",
"((((( ==% ((((((((((",
"^^^^^^^^^^^^^^^^(((_",
"::::::::::::::::<<<<",
"[[[[[[[[[[[[[[[[[[[[",
"}}}}}}}}}}}}}}}}}}}}",
"}}}}}}}}}}}}}}}}}}}}",
"}}}}}}}}}}}}}}}}}}}}",
"}}}}}}}}}}}}}}}}}}}}",
"}}}}}}}}}}}}}}}}}}}}",
"}}}}}}}}}}}}}}}}}}}}"};
