/* XPM */
static char * trans_xpm[] = {
"17 19 2 1",
" 	c None",
".	c #9D6217",
"                 ",
"                 ",
"                 ",
"                 ",
"                 ",
"                 ",
"      ....       ",
"     ......      ",
"    ........     ",
"    ........     ",
"    ........     ",
"    ........     ",
"     ......      ",
"      ....       ",
"                 ",
"                 ",
"                 ",
"                 ",
"                 "};
